<svg width="2650" height="1394" viewBox="0 0 2650 1394" fill="none" xmlns="http://www.w3.org/2000/svg">
<path d="M164.06 1390.2C164.06 1390.2 -144.227 1059.2 111.926 700.852C339.192 382.891 604.179 404.627 798.58 533.653C881.379 588.613 1120.11 540.427 1323.31 216.897C1600.4 -224.317 2560.89 43.2804 2385.78 722.093C2301.01 1050.6 2643.69 1062.53 2469.07 1390.91L164.06 1390.2" fill="#DDE8FD"/>
<path d="M1731.23 1233.72C1731.23 1233.72 1756.1 1204.71 1732.75 1186.27C1732.75 1186.27 1715.71 1175.95 1701.8 1176.79C1701.8 1176.79 1721.5 1209.82 1715.13 1213.11C1708.75 1216.39 1695.84 1174.71 1695.84 1174.71C1695.84 1174.71 1657.03 1170.95 1644.55 1176.95C1644.55 1176.95 1677.71 1204.1 1670.72 1205.71C1663.75 1207.32 1627.92 1180.68 1627.92 1180.68C1627.92 1180.68 1591.81 1186.83 1593.74 1208.86C1595.66 1230.9 1608.1 1237.7 1613.56 1237.11C1619.05 1236.52 1651.03 1224.31 1651.73 1228.79C1652.42 1233.27 1633.16 1247.92 1619.7 1248.6C1619.7 1248.6 1645.14 1276.68 1662.05 1268.58C1678.99 1260.47 1680.43 1247.63 1690.98 1242.82C1701.54 1237.99 1710.52 1238 1706.18 1242.92C1701.82 1247.83 1682.72 1252.6 1676.7 1263.28C1670.66 1273.95 1665.25 1281.14 1682.78 1278.51C1700.28 1275.87 1728.73 1263.07 1729.97 1248.39C1731.23 1233.72 1731.23 1233.72 1731.23 1233.72" fill="#3662C1"/>
<path d="M1611.48 1209.45C1611.48 1209.45 1709.58 1205.68 1731.23 1233.72C1731.23 1233.72 1736.01 1248.07 1750.76 1261.13L1753.06 1267.4C1753.06 1267.4 1736.07 1249.48 1729.98 1248.39C1729.98 1248.39 1739.49 1213.64 1611.48 1209.45" fill="#3662C1"/>
<path d="M1750.77 1261.13C1750.77 1261.13 1771.82 1276.71 1773.29 1304.52L1769.46 1304.87C1769.46 1304.87 1762.74 1276.11 1750.58 1264.85C1738.44 1253.6 1750.77 1261.13 1750.77 1261.13Z" fill="#3662C1"/>
<path d="M1818.2 1197.23C1818.2 1197.23 1778.62 1175.07 1797.08 1144.99C1797.08 1144.99 1811.85 1126.52 1827.7 1121.78C1827.7 1121.78 1819.23 1166.63 1827.7 1167.68C1836.14 1168.74 1833.5 1117.03 1833.5 1117.03C1833.5 1117.03 1875.19 1096.98 1891.54 1098.57C1891.54 1098.57 1865.68 1142.36 1874.13 1141.3C1882.57 1140.24 1911.58 1095.92 1911.58 1095.92C1911.58 1095.92 1954.33 1088.02 1961.17 1113.34C1968.04 1138.67 1956.96 1151.32 1950.63 1152.91C1944.3 1154.5 1903.67 1153.97 1904.73 1159.25C1905.79 1164.52 1933.21 1172.96 1948.51 1168.22C1948.51 1168.22 1931.63 1209.9 1909.47 1207.78C1887.31 1205.67 1880.46 1191.95 1866.74 1190.9C1853.01 1189.84 1843 1193.54 1849.86 1197.23C1856.71 1200.92 1879.93 1198.44 1890.99 1207.86C1902.08 1217.28 1911.06 1223.08 1890.49 1227.31C1869.9 1231.52 1832.97 1228.88 1825.58 1213.06C1818.2 1197.23 1818.2 1197.23 1818.2 1197.23" fill="#3A49CD"/>
<path d="M1941.66 1121.26C1941.66 1121.26 1830.87 1157.14 1818.19 1197.23C1818.19 1197.23 1818.72 1215.16 1807.64 1235.75V1243.66C1807.64 1243.66 1819.24 1216.75 1825.58 1213.06C1825.58 1213.06 1800.78 1178.23 1941.66 1121.26Z" fill="#3A49CD"/>
<path d="M1807.66 1235.75C1807.66 1235.75 1790.56 1261.7 1800.31 1293.28L1804.71 1292.1C1804.71 1292.1 1800.45 1257.31 1809.37 1239.81C1818.32 1222.31 1807.66 1235.75 1807.66 1235.75" fill="#3A49CD"/>
<path d="M1755.26 1166.67C1755.26 1166.67 1807.41 1137.46 1783.06 1097.82C1783.06 1097.82 1763.6 1073.47 1742.73 1067.22C1742.73 1067.22 1753.86 1126.32 1742.73 1127.72C1731.6 1129.11 1735.08 1060.95 1735.08 1060.95C1735.08 1060.95 1680.14 1034.52 1658.57 1036.6C1658.57 1036.6 1692.64 1094.34 1681.51 1092.95C1670.4 1091.55 1632.14 1033.14 1632.14 1033.14C1632.14 1033.14 1575.8 1022.7 1566.78 1056.08C1557.72 1089.47 1572.34 1106.16 1580.68 1108.24C1589.03 1110.34 1642.58 1109.64 1641.19 1116.59C1639.79 1123.55 1603.63 1134.67 1583.47 1128.42C1583.47 1128.42 1605.72 1183.36 1634.93 1180.58C1664.13 1177.79 1673.17 1159.71 1691.27 1158.32C1709.35 1156.94 1722.56 1161.8 1713.52 1166.67C1704.47 1171.54 1673.88 1168.27 1659.27 1180.68C1644.67 1193.1 1632.84 1200.75 1659.96 1206.31C1687.09 1211.87 1735.78 1208.4 1745.5 1187.54C1755.26 1166.67 1755.26 1166.67 1755.26 1166.67" fill="#BED2FA"/>
<path d="M1592.51 1066.51C1592.51 1066.51 1738.56 1113.82 1755.26 1166.67C1755.26 1166.67 1754.57 1190.31 1769.17 1217.44V1227.87C1769.17 1227.87 1753.86 1192.4 1745.52 1187.53C1745.52 1187.53 1778.2 1141.63 1592.51 1066.51" fill="#3A49CD"/>
<path d="M1769.16 1217.44C1769.16 1217.44 1791.68 1251.64 1778.83 1293.28L1773.05 1291.72C1773.05 1291.72 1778.66 1245.87 1766.89 1222.8C1755.1 1199.74 1769.16 1217.44 1769.16 1217.44Z" fill="#3A49CD"/>
<path d="M1758.04 1383.56C1814.48 1383.56 1860.23 1337.83 1860.23 1281.39H1655.86C1655.86 1337.83 1701.61 1383.56 1758.04 1383.56Z" fill="#93B3F4"/>
<path d="M1783.18 1382.79C1779.01 1383.31 1774.79 1383.56 1770.48 1383.56C1714.06 1383.56 1668.31 1337.82 1668.31 1281.39H1693.69C1693.69 1333.52 1732.75 1376.54 1783.18 1382.79Z" fill="#BED2FA"/>
<path d="M1861.64 1388.76H1654.47C1654.47 1381.8 1660.1 1376.16 1667.07 1376.16H1849.03C1856.01 1376.16 1861.64 1381.8 1861.64 1388.76Z" fill="#93B3F4"/>
<path d="M1862.55 1284.52H1652.5V1281.39H1862.55V1284.52Z" fill="#93B3F4"/>
<path d="M359.855 390.736C359.562 389.149 355.815 372.069 329.389 374.976C329.389 374.976 342.549 374.642 345.602 380.002C345.602 380.002 335.789 374.256 328.935 377.562C322.095 380.856 319.709 394.029 320.269 398.162C320.829 402.309 326.749 415.043 331.455 415.523C333.242 415.696 335.215 415.296 336.975 414.723C336.028 416.789 335.148 419.042 334.348 421.536C326.988 444.602 340.869 464.082 349.402 460.469C354.895 458.149 357.908 467.643 357.908 467.643L406.748 414.802C406.748 414.802 380.322 375.682 359.855 390.736" fill="#12123C"/>
<path d="M423.482 1027.14L411.602 1031.56C411.602 1031.56 360.015 960.003 353.655 897.043C352.522 885.803 352.895 874.909 355.348 864.856C355.348 864.856 354.855 861.976 353.962 856.883C353.562 854.496 353.055 851.642 352.482 848.362C350.802 838.749 348.495 825.602 345.855 810.629C339.788 776.162 331.922 732.122 325.815 699.736L329.015 698.709L363.642 687.536L370.802 664.802L396.588 658.016C396.588 658.016 402.348 669.283 407.508 722.523C408.455 729.496 409.322 737.203 409.962 745.549C411.975 771.043 412.122 802.656 407.508 838.803C406.335 848.056 404.842 857.603 402.988 867.416C401.628 874.616 401.415 884.429 401.988 895.683C404.588 947.149 423.482 1027.14 423.482 1027.14" fill="#1A165E"/>
<path d="M409.962 745.549L353.962 856.883C353.562 854.496 353.055 851.643 352.482 848.363C350.802 838.749 348.495 825.603 345.855 810.629C339.788 776.163 331.922 732.123 325.815 699.736L329.015 698.71L363.642 687.536L370.802 664.803L396.588 658.016C396.588 658.016 402.348 669.283 407.508 722.523C408.455 729.496 409.322 737.203 409.962 745.549Z" fill="#0D0D38"/>
<path d="M385.335 672.296L384.029 661.189C362.322 666.949 304.282 645.069 304.282 645.069C304.282 645.069 283.242 663.563 286.015 707.896C287.362 729.536 289.829 821.483 292.389 848.683C293.322 858.549 294.135 865.563 294.468 868.376C294.482 868.376 294.482 868.389 294.482 868.403C294.575 869.256 294.282 870.056 293.842 870.803C290.055 877.229 286.922 883.923 284.348 890.776C259.108 958.056 288.242 1040.91 288.242 1040.91L295.802 1037.86C295.802 1037.86 312.375 945.656 325.855 904.923C328.135 898.003 330.335 892.576 332.335 889.336C338.202 879.883 343.642 864.429 348.575 846.056C357.895 811.323 365.402 766.136 370.402 731.256C371.082 731.296 385.335 672.296 385.335 672.296" fill="#1A165E"/>
<path d="M392.415 581.016C392.588 581.589 392.748 582.176 393.015 582.763C401.495 606.669 416.615 631.776 426.922 640.936C433.682 647.003 452.282 653.283 468.095 657.776C478.602 660.856 487.975 663.096 491.815 664.056C493.028 664.363 493.748 664.496 493.748 664.496L497.268 654.083C497.268 654.083 489.055 648.949 479.028 642.203C465.122 632.749 447.722 620.309 444.389 614.949C436.682 602.509 431.562 564.496 424.948 538.829C424.628 537.443 424.282 536.109 423.948 534.789C423.695 533.816 423.442 532.869 423.175 531.936C423.122 531.736 423.082 531.456 422.948 531.243C422.588 530.176 422.308 529.216 422.002 528.336C422.015 528.256 421.948 528.15 421.868 528.043C420.535 523.776 417.415 517.829 417.415 517.829C415.482 514.829 413.375 513.349 411.095 513.856C411.095 513.856 407.988 514.803 404.002 517.549C403.162 518.109 402.295 518.763 401.389 519.51C400.789 519.856 400.335 520.323 399.882 520.789C396.735 523.603 393.468 527.496 390.975 532.71C389.082 536.656 387.602 541.323 386.855 546.936C385.575 556.123 388.028 568.349 392.415 581.016" fill="#FC9290"/>
<path d="M404.188 537.376C397.895 541.482 390.055 544.802 380.268 546.762C343.615 554.162 330.522 522.989 325.882 501.709C330.922 499.002 335.615 498.509 338.322 498.269C340.962 498.029 343.748 497.896 346.042 497.842C350.215 494.829 356.668 482.189 358.575 462.309L360.282 462.829L388.762 471.482C388.762 471.482 387.188 480.576 386.308 489.176C385.615 495.909 385.348 502.362 386.588 503.976C388.815 504.522 390.148 504.882 390.148 504.882C390.148 504.882 390.148 504.896 390.162 504.909C390.535 505.549 398.468 519.482 404.188 537.376" fill="#FC9290"/>
<path d="M388.762 471.496C388.762 471.496 387.188 480.576 386.308 489.189C370.082 487.096 362.975 471.403 360.282 462.829L388.762 471.496Z" fill="#EA8989"/>
<path d="M393.375 480.202C393.375 480.202 354.842 476.976 357.215 453.002C359.588 429.042 356.215 412.482 380.922 413.522C405.615 414.562 409.495 424.176 410.642 432.376C411.802 440.562 403.468 480.416 393.375 480.202" fill="#FC9290"/>
<path d="M423.948 534.789C423.695 533.816 423.442 532.869 423.175 531.936C423.122 531.736 423.082 531.456 422.948 531.243C422.588 530.176 422.308 529.216 422.002 528.336C422.015 528.256 421.948 528.149 421.868 528.043C420.535 523.776 417.415 517.829 417.415 517.829C416.015 515.656 414.602 513.749 413.068 513.056C411.855 512.296 405.162 508.402 390.148 504.882C390.148 504.882 390.148 504.896 390.162 504.909C390.548 505.789 400.815 529.189 399.108 534.749C397.375 540.389 347.669 530.176 344.522 526.656C342.002 523.829 339.548 507.296 338.668 500.843C338.455 499.243 338.322 498.269 338.322 498.269C338.322 498.269 320.348 498.429 311.015 503.882C311.015 503.882 316.162 511.816 318.962 520.989C319.228 521.856 319.482 522.736 319.695 523.616C320.162 525.482 320.495 527.362 320.655 529.216C320.869 531.682 319.922 534.016 318.215 536.416C316.668 538.629 314.482 540.896 311.975 543.349C310.335 544.936 308.562 546.616 306.748 548.416C308.175 559.482 311.588 577.522 312.362 597.202C312.548 602.189 311.602 607.122 309.642 611.669C308.855 613.469 307.922 615.216 306.828 616.882C298.108 630.069 283.015 656.029 289.189 669.936C291.469 683.562 409.348 684.789 404.708 670.136C404.708 670.136 409.908 584.122 416.348 562.616C416.575 561.829 416.775 561.056 416.948 560.282C418.748 552.109 417.175 544.202 415.175 537.162C418.282 535.882 421.602 535.162 423.948 534.789" fill="#98B7F5"/>
<path d="M410.829 418.936C405.615 411.136 400.962 412.27 398.215 414.176C378.348 400.51 363.082 416.243 363.082 416.243C358.788 433.19 345.402 441.803 345.402 441.803C345.402 441.803 351.975 446.829 368.562 444.296C373.629 443.523 378.389 440.443 382.562 436.563C374.922 446.883 365.229 453.883 365.229 453.883C385.429 446.896 395.882 420.816 396.935 418.043C399.069 420.39 403.242 425.443 404.202 430.069C405.509 436.363 405.122 449.016 408.815 448.963C408.815 448.963 418.669 430.643 410.829 418.936" fill="#12123C"/>
<path d="M369.588 646.589C346.828 649.642 324.148 628.829 309.642 611.669C311.602 607.122 312.548 602.189 312.362 597.202C311.588 577.522 308.175 559.482 306.748 548.416C308.562 546.616 310.335 544.936 311.975 543.349C314.482 540.896 316.668 538.629 318.215 536.416C341.402 565.189 400.468 642.429 369.588 646.589" fill="#6D89CF"/>
<path d="M529.588 669.282C524.468 670.762 516.775 677.109 506.322 671.469C498.842 667.496 490.802 664.389 486.882 662.922C485.322 662.429 484.428 662.096 484.428 662.096L490.268 649.976C490.268 649.976 490.415 650.069 490.775 650.189C493.522 651.136 507.468 655.869 514.348 655.136C522.095 654.269 533.668 664.829 533.668 664.829C533.668 664.829 534.695 667.882 529.588 669.282" fill="#FC9290"/>
<path d="M332.202 1047.08H272.362C272.362 1047.08 270.935 1037.96 274.055 1031.04C277.055 1024.42 281.748 1021.39 280.615 1013.36C284.415 1017.27 290.615 1021.66 299.268 1020.5C300.322 1022.22 306.108 1031.4 309.655 1033.95C313.562 1036.76 330.988 1035.76 332.202 1047.08" fill="#0D0D38"/>
<path d="M460.668 1047.08H400.828C400.828 1047.08 398.589 1037.54 402.522 1031.04C406.002 1025.31 404.668 1022.03 402.095 1017.28C404.802 1018.39 408.308 1019.39 412.175 1019.18C415.148 1019 418.308 1017.66 421.068 1016.04C423.642 1018.98 434.668 1031.48 438.108 1033.95C442.028 1036.76 459.455 1035.76 460.668 1047.08" fill="#0D0D38"/>
<path d="M384.188 466.335C384.188 466.335 384.722 469.509 392.535 469.509C392.535 469.509 399.095 469.522 399.108 466.069C399.108 466.069 392.922 463.229 384.188 466.335Z" fill="white"/>
<path d="M448.548 654.429C448.548 654.429 453.682 654.243 457.388 652.256C461.108 650.269 473.228 653.456 472.055 655.069C470.882 656.683 464.095 654.696 463.455 655.616C462.815 656.523 460.335 657.683 460.335 657.683L448.548 654.429" fill="#FC9290"/>
<path d="M739.535 840.723H537.455C493.895 840.723 458.575 805.403 458.575 761.843V559.776C458.575 516.216 493.895 480.896 537.455 480.896H739.535C783.095 480.896 818.402 516.216 818.402 559.776V761.843C818.402 805.403 783.095 840.723 739.535 840.723Z" fill="#BED2FA"/>
<path d="M771.802 569.469V745.162C771.802 750.389 770.922 755.402 769.308 760.082C763.775 776.096 749.589 788.069 732.335 790.402C730.309 790.682 728.242 790.829 726.148 790.829H550.442C530.642 790.829 513.789 778.229 507.469 760.616C505.722 755.789 504.789 750.589 504.789 745.162V569.469C504.789 544.256 525.228 523.802 550.442 523.802H726.148C751.362 523.802 771.802 544.256 771.802 569.469" fill="#E1EBFD"/>
<path d="M615.348 644.923C615.348 644.923 614.455 672.429 610.935 684.749L583.082 704.189L687.962 719.883L662.948 685.323C662.948 685.323 655.388 648.443 659.362 634.803C663.322 621.163 615.348 644.923 615.348 644.923Z" fill="#FC9290"/>
<path d="M615.202 648.723C615.202 648.709 623.495 668.683 639.108 668.243C654.735 667.803 658.295 650.136 658.295 650.136L615.202 648.723" fill="#EA8989"/>
<path d="M605.868 632.549C605.868 632.549 600.828 607.375 597.308 599.735C593.788 592.109 590.855 558.082 629.868 556.322C629.868 556.322 644.828 558.082 653.042 553.095C653.042 553.095 653.042 558.082 650.988 559.842C650.988 559.842 664.495 556.615 675.055 568.349C685.615 580.082 668.015 621.162 668.895 630.842L605.868 632.549" fill="#AC4949"/>
<path d="M637.322 660.536C626.002 660.336 605.162 645.256 605.162 626.589V597.469C605.162 590.656 609.922 585.069 615.722 585.069H658.922C664.722 585.069 669.482 590.656 669.482 597.469V624.949C669.482 644.522 650.308 660.762 637.322 660.536Z" fill="#FC9290"/>
<path d="M605.162 613.016C605.162 613.016 605.228 595.522 619.095 592.829C632.948 590.136 663.975 601.349 668.375 588.589C672.775 575.829 608.402 576.056 605.162 584.189C601.922 592.336 605.162 613.016 605.162 613.016" fill="#AC4949"/>
<path d="M703.108 693.069C703.095 693.069 703.082 693.056 703.068 693.056C700.135 691.976 698.602 691.843 698.602 691.843V691.896C687.202 689.029 676.415 687.042 666.348 685.749C665.202 685.589 664.068 685.456 662.948 685.322C656.068 694.469 650.562 698.642 644.775 701.549C643.482 702.189 642.188 702.776 640.868 703.336C639.708 703.816 638.535 704.296 637.322 704.762C635.802 704.562 634.322 704.176 632.868 703.656C632.028 703.349 631.215 703.002 630.402 702.629C619.322 697.389 610.935 685.082 610.935 684.749C609.388 684.909 607.868 685.082 606.415 685.269C593.322 686.909 584.415 689.336 580.562 690.536C580.562 690.536 580.548 690.536 580.535 690.536C579.735 690.629 551.175 694.562 507.468 760.616C513.788 778.229 530.642 790.829 550.442 790.829H726.148C728.242 790.829 730.308 790.682 732.335 790.402C749.588 788.069 763.775 776.096 769.308 760.082C736.202 709.842 712.522 696.549 703.108 693.069Z" fill="#262267"/>
<path d="M612.402 678.042C612.402 678.042 607.748 679.989 606.415 685.269C606.415 685.269 625.108 704.482 637.322 704.775L612.402 678.042Z" fill="#93B3F4"/>
<path d="M637.322 704.776L661.442 677.069C661.442 677.069 666.415 680.349 666.348 685.736C666.348 685.736 647.695 705.509 637.322 704.776" fill="#93B3F4"/>
<path d="M648.108 790.829H624.015C626.855 758.469 630.322 726.469 631.989 711.509C632.322 708.469 632.589 706.136 632.762 704.629C632.789 704.389 632.802 704.162 632.829 703.962C632.855 703.856 632.855 703.736 632.869 703.656C632.949 703.042 632.975 702.736 632.975 702.736L635.389 702.696L639.189 702.629H639.202L640.802 702.602C640.802 702.602 640.829 702.842 640.869 703.336C640.895 703.589 640.922 703.922 640.962 704.336C640.989 704.642 641.002 705.002 641.042 705.389C641.188 707.162 641.402 709.722 641.669 712.949C642.989 728.576 645.575 759.696 648.108 790.829" fill="#93B3F4"/>
<path d="M628.162 694.949C628.162 694.949 639.282 693.829 646.055 694.523C647.402 694.656 648.148 696.123 647.495 697.309C645.588 700.723 641.722 706.643 637.668 706.643C631.988 706.643 623.122 695.336 628.162 694.949" fill="#6D89CF"/>
<path d="M483.722 667.283C480.562 671.576 472.215 678.11 461.442 673.11C453.735 669.603 445.522 666.976 441.522 665.75C439.935 665.35 439.028 665.069 439.028 665.069L444.122 652.616C444.122 652.616 444.268 652.696 444.642 652.803C447.442 653.576 461.268 653.616 468.882 657.683C477.682 662.403 487.442 662.256 483.722 667.283" fill="#FC9290"/>
<path d="M449.042 654.389L446.908 666.122C446.908 666.122 442.908 665.749 436.535 665.122C434.628 664.935 433.522 664.762 433.522 664.762C428.428 664.202 422.308 663.389 415.642 662.522H415.562C404.122 660.815 391.308 658.669 380.428 656.002C372.775 654.055 366.082 651.842 361.455 649.442C360.975 649.215 360.602 648.975 360.122 648.655C348.975 641.962 334.588 620.642 322.828 597.482C321.202 594.282 319.655 591.082 318.122 587.962C312.602 576.349 308.002 564.842 304.962 554.815C303.082 548.842 301.708 543.375 301.135 538.815C300.908 537.215 300.682 535.695 300.655 534.255C300.588 533.429 300.535 532.615 300.495 531.829C305.002 527.895 315.388 520.535 329.548 521.295C329.842 521.802 330.135 522.309 330.428 522.829C336.535 533.935 343.202 548.429 349.508 562.855C353.002 570.762 356.388 578.682 359.722 585.975C361.655 590.415 363.548 594.575 365.322 598.402C368.748 605.682 371.788 611.549 374.362 615.202C376.015 617.589 380.428 620.722 386.242 624.189C396.335 630.269 410.935 637.389 423.615 643.149C428.882 645.575 433.855 647.762 437.988 649.562C444.642 652.509 449.042 654.389 449.042 654.389" fill="#FC9290"/>
<path d="M330.402 522.869C312.748 519.616 300.615 534.229 300.615 534.229C298.575 508.283 311.175 503.616 311.175 503.616C316.188 501.016 322.988 509.483 330.402 522.869" fill="#98B7F5"/>
<path d="M2290.13 908.391H2027.79C2022.06 908.391 2017.36 903.696 2017.36 897.963V866.124C2017.36 860.391 2022.06 855.71 2027.79 855.71H2290.13C2295.86 855.71 2300.54 860.391 2300.54 866.124V897.963C2300.54 903.696 2295.86 908.391 2290.13 908.391Z" fill="#93B3F4"/>
<path d="M2085.99 908.392L2082.64 939.219L2033.93 1385.48C2033.78 1387.03 2032.71 1388.22 2031.38 1388.22C2028.89 1388.22 2026.93 1385.62 2027.21 1382.64L2065.83 925.659L2067.28 908.392H2085.99" fill="#FDADAC"/>
<path d="M2085.99 908.392L2082.64 939.219C2080.3 926.937 2065.83 925.658 2065.83 925.658L2067.28 908.392H2085.99" fill="#15152A"/>
<path d="M2286.54 1388.22C2285.22 1388.22 2284.1 1387.03 2283.97 1385.48L2235.3 939.218L2233.18 919.992L2231.93 908.391H2250.61L2252.09 925.659L2253.23 939.191L2290.71 1382.64C2290.98 1385.62 2289.04 1388.22 2286.54 1388.22" fill="#FDADAC"/>
<path d="M2253.25 939.186C2248.5 924.506 2233.21 919.987 2233.21 919.987C2233.21 919.987 2233.21 919.987 2233.19 919.987L2231.95 908.387H2250.64L2252.1 925.652L2253.25 939.186" fill="#15152A"/>
<path d="M475.788 1080.83H209.295C204.708 1080.83 200.948 1077.08 200.948 1072.5V1055.43C200.948 1050.84 204.708 1047.08 209.295 1047.08H475.788C480.375 1047.08 484.135 1050.84 484.135 1055.43V1072.5C484.135 1077.08 480.375 1080.83 475.788 1080.83Z" fill="#93B3F4"/>
<path d="M269.575 1080.83L266.215 1100.58L217.522 1386.46C217.375 1387.46 216.282 1388.22 214.975 1388.22C212.468 1388.22 210.522 1386.55 210.788 1384.64L249.415 1091.9L250.868 1080.83H269.575" fill="#FDADAC"/>
<path d="M269.575 1080.83L266.215 1100.58C263.908 1092.71 249.415 1091.9 249.415 1091.9L250.868 1080.83H269.575" fill="#15152A"/>
<path d="M470.108 1388.22C468.802 1388.22 467.708 1387.46 467.562 1386.46L418.868 1100.58L416.775 1088.26L415.508 1080.83H434.215L435.668 1091.9L436.815 1100.58L474.295 1384.64C474.562 1386.55 472.615 1388.22 470.108 1388.22" fill="#FDADAC"/>
<path d="M436.815 1100.58C432.055 1091.16 416.775 1088.27 416.775 1088.27C416.775 1088.27 416.775 1088.27 416.775 1088.26L415.508 1080.83H434.215L435.668 1091.9L436.815 1100.58Z" fill="#15152A"/>
<path d="M871.149 404.927H666.959C622.935 404.927 587.263 369.24 587.263 325.217V121.026C587.263 77.003 622.935 41.3161 666.959 41.3161H871.149C915.173 41.3161 950.859 77.003 950.859 121.026V325.217C950.859 369.24 915.173 404.927 871.149 404.927Z" fill="#BED2FA"/>
<path d="M903.785 130.807V308.365C903.785 312.372 903.26 316.268 902.307 319.985C898.562 334.409 888.006 346.098 874.273 351.404C873.761 351.611 873.222 351.791 872.711 351.97C867.972 353.615 862.915 354.499 857.637 354.499H680.093C677.758 354.499 675.451 354.319 673.212 353.974C658.843 351.832 646.629 343.045 639.804 330.845C636.073 324.185 633.959 316.531 633.959 308.365V130.807C633.959 105.329 654.615 84.6733 680.093 84.6733H857.637C883.129 84.6733 903.785 105.329 903.785 130.807" fill="#E1EBFD"/>
<path d="M753.762 197.362C753.762 197.362 752.989 221.535 749.895 232.362L725.402 249.442L817.575 263.242L795.589 232.869C795.589 232.869 788.962 200.455 792.442 188.469C795.922 176.482 753.762 197.362 753.762 197.362" fill="#FC9290"/>
<path d="M753.628 200.709C753.628 200.695 760.922 218.255 774.642 217.869C788.375 217.469 791.495 201.949 791.495 201.949L753.628 200.709" fill="#EA8989"/>
<path d="M745.442 186.496C745.442 186.496 741.002 164.363 737.908 157.669C734.815 150.963 732.242 121.056 766.522 119.51C766.522 119.51 779.668 121.056 786.895 116.669C786.895 116.669 786.895 121.056 785.095 122.603C785.095 122.603 796.948 119.763 806.228 130.083C815.508 140.389 800.042 176.483 800.815 184.989L745.442 186.496" fill="#12123C"/>
<path d="M801.335 155.656V179.816C801.335 183.842 800.402 187.722 798.842 191.295H798.828C796.108 197.455 791.508 202.682 786.468 206.216C781.988 209.349 777.175 211.149 773.068 211.082C769.495 211.016 764.855 209.269 760.348 206.282C754.282 202.269 748.522 196.029 746.055 188.682L746.015 188.576L745.935 188.269C745.215 186.015 744.815 183.669 744.815 181.256V155.656C744.815 149.669 748.988 144.776 754.095 144.776H792.042C797.148 144.776 801.335 149.669 801.335 155.656" fill="#FC9290"/>
<path d="M826.91 238.659C826.91 238.659 805.274 234.006 795.581 232.874C787.021 244.237 780.89 247.289 773.075 250.381C760.483 248.642 749.892 232.735 749.892 232.376C736.195 233.785 726.958 236.698 723.175 237.886H723.161C722.291 237.982 688.767 242.649 639.792 331.279C646.613 343.485 658.818 352.267 673.192 354.407C679.502 348.953 693.061 337.189 703.693 327.952C703.568 330.934 703.541 333.627 703.61 335.988C703.789 342.325 703.996 348.622 704.135 354.932H837.763C837.515 351.728 837.294 348.635 837.156 345.694C836.7 336.512 836.272 328.117 835.872 320.468C835.872 320.399 835.872 320.33 835.858 320.261C835.858 320.178 835.844 320.109 835.844 320.013C835.858 320.026 835.858 320.04 835.872 320.04C837.818 321.725 840.11 323.727 842.637 325.908C843.12 326.336 843.645 326.778 844.156 327.234C844.612 327.62 845.04 328.007 845.509 328.407C846.144 328.946 846.766 329.498 847.401 330.051C848.547 331.045 849.707 332.053 850.866 333.074C851.405 333.53 851.957 333.999 852.482 334.469C852.772 334.717 853.062 334.966 853.352 335.214C853.669 335.504 854.001 335.781 854.346 336.071C854.581 336.278 854.829 336.485 855.078 336.706C855.644 337.203 856.224 337.7 856.776 338.197C857.246 338.597 857.715 338.998 858.184 339.412C858.557 339.743 858.958 340.075 859.344 340.406C860.739 341.635 862.106 342.822 863.445 343.982C863.984 344.452 864.508 344.907 865.033 345.363C865.585 345.832 866.124 346.302 866.648 346.744C867.021 347.075 867.38 347.393 867.753 347.71C867.919 347.848 868.071 348 868.236 348.124C868.789 348.608 869.327 349.091 869.866 349.533C870.39 350.002 870.929 350.472 871.412 350.9C871.633 351.079 871.84 351.259 872.047 351.438C872.254 351.632 872.475 351.811 872.682 351.991C873.207 351.811 873.745 351.618 874.256 351.411C887.995 346.109 898.544 334.428 902.285 319.999C856.417 241.034 826.91 238.659 826.91 238.659" fill="#96B5F5"/>
<path d="M744.815 169.336C744.815 169.336 744.868 153.949 757.055 151.589C769.228 149.216 796.495 159.083 800.362 147.869C804.228 136.656 747.668 136.843 744.815 144.003C741.962 151.149 744.815 169.336 744.815 169.336" fill="#12123C"/>
<path d="M719.988 354.496H704.148C704.002 348.203 703.802 341.896 703.615 335.563C703.548 333.203 703.575 330.509 703.695 327.523C703.722 326.856 703.748 326.176 703.775 325.483C703.935 325.736 704.202 326.163 704.575 326.763C706.935 330.629 713.402 341.389 719.988 354.496" fill="#6D89CF"/>
<path d="M786.468 195.576V206.216C781.988 209.349 777.175 211.149 773.068 211.082C769.495 211.016 764.855 209.269 760.348 206.282V195.576C760.348 189.629 765.215 184.762 771.148 184.762H775.655C781.602 184.762 786.468 189.629 786.468 195.576Z" fill="#12123C"/>
<path d="M874.271 351.398C873.753 351.616 873.221 351.807 872.703 351.984C872.485 351.807 872.267 351.616 872.062 351.425C871.858 351.248 871.64 351.071 871.435 350.894C870.944 350.457 870.399 349.994 869.867 349.53C869.335 349.08 868.803 348.603 868.244 348.126C868.081 347.989 867.931 347.839 867.767 347.703C867.385 347.389 867.031 347.062 866.663 346.748C866.145 346.298 865.585 345.821 865.04 345.344C864.522 344.894 863.99 344.444 863.458 343.98C862.122 342.821 860.745 341.621 859.354 340.394C858.958 340.067 858.563 339.726 858.195 339.399C857.731 338.99 857.254 338.594 856.79 338.185C856.231 337.694 855.659 337.19 855.086 336.699C854.841 336.481 854.595 336.276 854.35 336.058C854.022 335.772 853.682 335.485 853.368 335.213C853.068 334.954 852.782 334.708 852.495 334.463C851.963 333.999 851.418 333.522 850.886 333.058C849.727 332.036 848.568 331.04 847.423 330.045C846.782 329.486 846.155 328.94 845.527 328.409C845.064 327.999 844.614 327.604 844.164 327.222C843.659 326.772 843.141 326.336 842.65 325.899C840.128 323.718 837.837 321.713 835.887 320.036C835.846 319.995 835.792 319.954 835.751 319.913C835.751 319.913 835.792 319.886 835.874 319.832C837.142 318.945 848.705 311.309 855.986 324.209C861.14 333.29 869.335 344.744 874.271 351.398Z" fill="#6D89CF"/>
<path d="M798.828 191.296C793.722 202.923 781.802 211.243 773.068 211.083C764.682 210.936 750.335 201.483 746.055 188.683L746.015 188.576L745.935 188.269C745.935 188.269 754.948 195.963 760.908 192.149H785.948C785.948 192.149 792.508 195.896 798.828 191.296" fill="#12123C"/>
<path d="M776.108 194.269H770.708C769.468 194.269 767.895 192.242 767.895 191.002C767.895 191.002 769.468 189.762 770.708 189.762H776.108C777.348 189.762 779.148 190.802 779.442 191.536C779.442 191.536 778.695 194.269 776.108 194.269Z" fill="#FC9290"/>
<path d="M1306.18 397.499H1101.99C1057.95 397.499 1022.27 361.815 1022.27 317.796V113.589C1022.27 69.5733 1057.95 33.8945 1101.99 33.8945H1306.18C1350.2 33.8945 1385.87 69.5733 1385.87 113.589V317.796C1385.87 361.815 1350.2 397.499 1306.18 397.499Z" fill="#BED2FA"/>
<path d="M1338.78 123.401V300.944C1338.78 312.297 1334.67 322.693 1327.88 330.731C1319.42 340.724 1306.78 347.076 1292.65 347.076H1115.1C1103.45 347.076 1092.78 342.762 1084.69 335.63C1075.03 327.175 1068.96 314.77 1068.96 300.944V123.401C1068.96 97.9151 1089.62 77.2591 1115.1 77.2591H1292.65C1318.12 77.2591 1338.78 97.9151 1338.78 123.401" fill="#E1EBFD"/>
<path d="M1185.01 242.469C1185.01 242.469 1156.05 241.018 1155.24 224.303C1154.42 207.586 1130.49 195.393 1137.43 181.975C1145.92 165.514 1138.17 149.696 1148.9 138.631C1160.72 126.438 1175.65 133.058 1183.53 125.954C1191.4 118.851 1205.82 112.312 1220.03 121.09C1234.23 129.852 1245.07 125.133 1254.41 133.589C1264.74 142.931 1260.83 154.674 1269.35 161.068C1277.14 166.915 1273.95 182.893 1267.38 195.892C1262.65 205.25 1273.57 214.029 1254.82 224.78C1247.04 229.26 1248.71 240.525 1225.04 242.469C1214.39 243.347 1191.24 238.349 1185.01 242.469" fill="#12123C"/>
<path d="M1185.88 227.654C1185.88 227.654 1185.03 253.765 1181.69 265.465L1155.23 283.922L1254.82 298.827L1231.07 266.008C1231.07 266.008 1223.9 230.992 1227.66 218.04C1231.43 205.072 1185.88 227.654 1185.88 227.654" fill="#F0807D"/>
<path d="M1185.74 231.24C1185.74 231.24 1193.62 250.212 1208.46 249.786C1223.27 249.375 1226.66 232.598 1226.66 232.598L1185.74 231.24Z" fill="#ED6966"/>
<path d="M1206.75 242.456C1196.01 242.281 1176.21 227.957 1176.21 210.238V182.574C1176.21 176.102 1180.72 170.804 1186.24 170.804H1227.26C1232.78 170.804 1237.28 176.102 1237.28 182.574V208.668C1237.28 227.259 1219.09 242.678 1206.75 242.456" fill="#F0807D"/>
<path d="M1264.96 272.659C1264.96 272.659 1264.96 272.659 1264.94 272.657C1252.89 269.626 1241.56 267.219 1231.09 265.999C1221.84 278.271 1215.21 281.548 1206.75 284.887C1193.18 283.009 1181.7 265.84 1181.7 265.456C1166.91 266.968 1156.92 270.102 1152.85 271.371C1152.85 271.371 1152.83 271.371 1152.8 271.378C1151.6 271.531 1125.14 275.635 1084.68 336.046C1092.79 343.176 1103.45 347.493 1115.11 347.493H1133.38H1148.16H1273.94C1273.94 347.35 1273.92 347.214 1273.92 347.074H1292.66C1306.78 347.074 1319.42 340.72 1327.89 330.728C1299.47 281.922 1264.96 272.659 1264.96 272.659" fill="#AC4949"/>
<path d="M1176.21 193.801C1176.21 193.801 1183.67 171.019 1208.12 174.567C1232.58 178.131 1234.68 183.349 1237.27 189.41C1239.88 195.472 1244.89 167.265 1244.89 167.265L1216.05 158.689C1216.05 158.689 1181.17 162.667 1178.66 168.521C1176.15 174.36 1176.15 174.36 1176.15 174.36L1176.21 193.801" fill="#12123C"/>
<path d="M1235.02 202.337C1234.26 206.111 1231.44 208.506 1226.62 209.489C1222.94 210.234 1219.45 209.838 1219.42 209.822H1219.37C1215.8 209.822 1213.25 207.729 1211.38 203.257C1211.12 202.67 1210.62 201.259 1210.49 199.784C1210.73 199.88 1210.98 199.991 1211.22 200.117C1211.47 200.26 1211.79 200.165 1211.92 199.911C1212.04 199.658 1211.95 199.356 1211.71 199.214C1211.3 199.008 1210.89 198.849 1210.49 198.69C1210.54 197.993 1210.71 197.327 1211.09 196.772C1211.85 195.614 1213.33 195.043 1215.49 195.043H1228.47C1230.77 195.043 1232.78 195.884 1233.99 197.358C1235.05 198.659 1235.42 200.387 1235.02 202.337V202.337ZM1203.01 199.88C1202.86 201.323 1202.36 202.686 1202.12 203.257C1200.25 207.729 1197.73 209.822 1194.14 209.822H1194.08C1194.05 209.838 1190.56 210.234 1186.88 209.489C1182.06 208.506 1179.25 206.111 1178.49 202.337C1178.1 200.387 1178.44 198.659 1179.52 197.358C1180.71 195.884 1182.73 195.043 1185.02 195.043H1198.01C1200.17 195.043 1201.66 195.614 1202.42 196.772C1202.82 197.358 1202.99 198.056 1203.02 198.786C1202.37 198.992 1201.94 199.182 1201.9 199.214C1201.64 199.325 1201.52 199.626 1201.64 199.88C1201.74 200.07 1201.91 200.181 1202.1 200.181C1202.17 200.181 1202.24 200.165 1202.32 200.133C1202.32 200.133 1202.58 200.022 1203.01 199.864V199.88V199.88ZM1234.66 196.803C1233.28 195.139 1231.02 194.187 1228.47 194.187H1215.49C1213.03 194.187 1211.3 194.885 1210.38 196.296C1209.94 196.93 1209.71 197.676 1209.63 198.437C1207.46 197.898 1205.35 198.183 1203.88 198.548V198.532C1203.81 197.739 1203.59 196.962 1203.13 196.296C1202.2 194.885 1200.48 194.187 1198.01 194.187H1185.02C1182.47 194.187 1180.22 195.139 1178.87 196.803C1177.62 198.326 1177.19 200.292 1177.65 202.512C1179.13 209.853 1187.58 210.789 1191.8 210.789C1193.1 210.789 1193.98 210.694 1194.16 210.678C1198.11 210.662 1200.9 208.411 1202.91 203.59C1203.24 202.766 1203.81 201.212 1203.89 199.61C1205.29 199.23 1207.45 198.896 1209.62 199.483C1209.68 201.148 1210.24 202.75 1210.6 203.59C1212.62 208.411 1215.41 210.662 1219.34 210.678C1219.51 210.694 1220.42 210.789 1221.72 210.789C1225.93 210.789 1234.39 209.853 1235.85 202.512C1236.3 200.292 1235.88 198.326 1234.66 196.803" fill="#12123C"/>
<path d="M1815.99 389.034L1578.3 361.624C1544.19 357.691 1519.72 326.85 1523.64 292.736L1551.06 55.0554C1554.99 20.944 1585.83 -3.51811 1619.96 0.41536L1857.63 27.8256C1891.74 31.759 1916.21 62.602 1912.29 96.7115L1884.87 334.392C1880.92 368.506 1850.1 392.968 1815.99 389.034" fill="#BED2FA"/>
<path d="M1862.39 118.461L1842.04 294.84C1841.24 301.736 1838.95 308.089 1835.56 313.641V313.648C1830.29 322.231 1822.35 328.869 1813 332.524C1807.68 334.62 1801.88 335.738 1795.87 335.688C1794.23 335.68 1792.58 335.578 1790.92 335.387L1716.14 326.763L1701.36 325.06L1653.03 319.484L1646.82 318.767L1614.55 315.04C1597.18 313.039 1583.16 301.626 1577.03 286.483C1576.64 285.497 1576.26 284.503 1575.95 283.494C1574.62 279.47 1573.86 275.229 1573.72 270.854C1573.62 268.575 1573.72 266.262 1573.97 263.924L1594.32 87.5457C1597.26 62.2349 1620.15 44.075 1645.44 46.9969L1821.84 67.3354C1847.15 70.2572 1865.29 93.1388 1862.39 118.461" fill="#E1EBFD"/>
<path d="M1787.67 159.172C1787.67 159.029 1787.63 158.887 1787.59 158.754C1787.03 155.532 1786.39 152.333 1785.68 149.187C1785.68 149.185 1785.68 149.181 1785.68 149.179C1789.61 123.96 1779.92 113.183 1771.56 107.712V107.71C1767.05 98.92 1762.25 92.7252 1757.68 90.621C1749.36 86.7808 1739.82 87.0909 1733.19 88.0408C1734.75 86.1294 1738.07 85.2026 1738.07 85.2026C1733.89 84.9367 1725.04 89.8021 1725.04 89.8021C1665.81 72.5315 1663.9 157.769 1666.75 177.296C1669.62 196.823 1649.68 204.952 1621.13 222.936C1595.19 239.274 1581.22 256.89 1573.7 270.856C1573.84 275.231 1574.61 279.473 1575.94 283.496C1576.87 282.654 1577.81 282.018 1578.73 281.677C1578.68 281.85 1577.98 283.771 1577.04 286.486C1583.15 301.63 1597.16 313.041 1614.54 315.045L1646.81 318.769L1653.03 319.486L1701.34 325.062C1706.41 317.868 1711.96 310.42 1717.7 303.031C1731.67 285.016 1746.95 267.333 1760.25 254.467C1764.62 250.219 1768.78 246.504 1772.64 243.465C1772.77 243.355 1772.91 243.239 1773.06 243.132C1774.91 239.825 1776.41 235.995 1777.61 232.029C1781.71 218.66 1782.46 203.777 1782.54 202.299C1782.54 216.107 1781.35 225.684 1779.75 232.32C1779.13 234.96 1778.44 237.127 1777.76 238.923C1779.46 237.077 1780.94 235 1782.29 232.713C1792.37 215.456 1792.48 186.512 1787.67 159.172" fill="#060632"/>
<path d="M1763.68 248.536C1763.87 248.643 1744.19 256.143 1730.65 250.713C1717.94 245.613 1711.31 227.589 1711.5 227.574C1717.2 227.107 1719.68 219.649 1723.35 186.78L1725.8 187.568L1767.14 200.819C1767.14 200.819 1764.64 214.017 1763.17 226.549C1761.92 237.073 1761.41 247.135 1763.68 248.536" fill="#FC9290"/>
<path d="M1711.1 108.481C1711.1 108.481 1730.16 84.4368 1758.21 103.362C1758.21 103.362 1742.7 102.007 1711.1 108.481Z" fill="#A13934"/>
<path d="M1767.14 200.819C1767.14 200.819 1764.64 214.017 1763.17 226.549C1739.58 223.155 1729.55 200.125 1725.8 187.568L1767.14 200.819Z" fill="#EC9090"/>
<path d="M1773.77 208.356C1773.77 208.356 1717.67 214.018 1714.69 179.036C1711.7 144.055 1702.46 121.225 1738.16 116.133C1773.83 111.041 1781.93 123.793 1785.78 135.226C1789.61 146.659 1788.29 205.982 1773.77 208.356" fill="#FC9290"/>
<path d="M1763.66 113.115C1763.66 113.115 1751.75 155.455 1728.65 163.512C1705.57 171.569 1694.8 166.109 1694.8 166.109C1694.8 166.109 1711.7 150.203 1713.34 124.784C1713.34 124.784 1750.41 94.5578 1763.66 113.115" fill="#060632"/>
<path d="M1760.11 116.776C1760.11 116.776 1772.36 124.971 1775.93 133.644C1779.48 142.319 1782.28 160.552 1787.57 159.477C1787.57 159.477 1796.81 130.603 1782.45 115.918C1767.23 100.348 1760.11 116.776 1760.11 116.776Z" fill="#060632"/>
<path d="M1811.71 245.774C1805.89 238.47 1793.99 234.671 1782.31 232.71C1781.45 232.575 1780.61 232.442 1779.75 232.315C1779.05 232.216 1778.33 232.116 1777.62 232.024C1772.7 231.38 1767.99 231.048 1763.95 230.872C1763.34 230.02 1762.99 229.495 1762.88 229.335C1762.84 229.303 1762.84 229.286 1762.84 229.286L1715.41 225.446L1714.9 225.403C1714.9 225.403 1714.86 225.403 1714.8 225.397C1714.79 225.397 1714.75 225.387 1714.71 225.387C1711.13 225.002 1662.01 220.127 1652.51 237.458C1646.28 248.788 1646.17 270.46 1649.1 294.513C1648.22 302.67 1647.47 310.967 1646.83 318.765L1653.04 319.484L1701.37 325.058L1716.15 326.762L1790.93 335.386C1792.59 335.577 1794.25 335.679 1795.87 335.686H1795.89C1801.88 335.737 1807.68 334.62 1813.02 332.524C1822.35 328.867 1830.28 322.23 1835.56 313.647V313.639C1828.37 284.203 1819.37 255.382 1811.71 245.774" fill="#A13934"/>
<path d="M1831.46 841.938H1627.35C1583.38 841.938 1547.71 806.27 1547.71 762.283V558.191C1547.71 514.204 1583.38 478.537 1627.35 478.537H1831.46C1875.43 478.537 1911.1 514.204 1911.1 558.191V762.283C1911.1 806.27 1875.43 841.938 1831.46 841.938Z" fill="#BED2FA"/>
<path d="M1864.05 567.985V745.427C1864.05 749.867 1863.42 754.159 1862.26 758.213C1856.92 776.76 1840.24 790.506 1820.2 791.48C1819.45 791.519 1818.7 791.547 1817.93 791.547H1640.48C1640.19 791.547 1639.85 791.547 1639.54 791.519C1639.24 791.519 1638.93 791.519 1638.63 791.494C1618.51 790.705 1601.72 777.026 1596.26 758.493C1595.04 754.346 1594.39 749.959 1594.39 745.427V567.985C1594.39 542.518 1615.04 521.864 1640.48 521.864H1817.93C1843.42 521.864 1864.05 542.518 1864.05 567.985Z" fill="#E1EBFD"/>
<path d="M1702.66 650.202C1702.66 650.202 1701.63 681.763 1697.61 695.896L1665.63 718.203L1785.96 736.203L1757.27 696.549C1757.27 696.549 1748.6 654.242 1753.16 638.588C1757.7 622.936 1702.66 650.202 1702.66 650.202" fill="#FC9290"/>
<path d="M1702.5 654.561C1702.5 654.547 1712.01 677.466 1729.92 676.96C1747.86 676.453 1751.93 656.187 1751.93 656.187L1702.5 654.561" fill="#EA8989"/>
<path d="M1691.78 636.015C1691.78 636.015 1686 607.108 1681.94 598.362C1677.93 589.615 1674.55 550.562 1719.33 548.549C1719.33 548.549 1736.49 550.562 1745.9 544.843C1745.9 544.843 1745.9 550.562 1743.56 552.589C1743.56 552.589 1759.04 548.883 1771.16 562.349C1783.27 575.815 1763.08 622.935 1764.09 634.042L1691.78 636.015" fill="#12123C"/>
<path d="M1727.87 668.106C1714.89 667.878 1690.99 650.584 1690.99 629.171V595.744C1690.99 587.931 1696.44 581.531 1703.1 581.531H1752.65C1759.31 581.531 1764.77 587.931 1764.77 595.744V627.278C1764.77 649.733 1742.77 668.371 1727.87 668.106" fill="#FC9290"/>
<path d="M1690.98 613.586C1690.98 613.586 1691.05 593.506 1706.96 590.427C1722.85 587.333 1758.46 600.214 1763.51 585.572C1768.55 570.932 1694.71 571.173 1690.98 580.52C1687.27 589.867 1690.98 613.586 1690.98 613.586" fill="#12123C"/>
<path d="M1808.89 791.55H1640.47C1640.16 791.55 1639.85 791.55 1639.52 791.525C1643.79 752.95 1652.93 706.417 1660.23 703.364C1660.23 703.364 1661.08 703.043 1662.69 702.551C1662.71 702.537 1662.73 702.537 1662.73 702.537C1666.54 701.35 1674.66 699.125 1686.42 697.31C1686.46 697.31 1686.48 697.31 1686.5 697.31C1689.9 696.777 1693.6 696.31 1697.59 695.898C1697.59 696.364 1711.44 716.603 1727.87 718.872C1738.08 714.831 1746.1 711.391 1757.27 696.55C1760.95 696.99 1764.71 697.497 1768.58 698.098C1777.96 699.537 1787.86 701.497 1798.18 704.097C1799.4 704.405 1800.62 704.724 1801.86 705.057H1801.88C1802.36 705.164 1802.85 705.311 1803.35 705.445C1803.35 705.445 1803.47 705.95 1803.76 708.964C1803.76 708.964 1803.76 708.964 1803.76 708.978C1804.38 715.831 1805.89 735.591 1808.89 791.55" fill="#6D89CF"/>
<path d="M1661.58 702.762C1661.54 702.762 1661.51 702.775 1661.45 702.788C1660.84 702.935 1659.98 703.162 1658.88 703.535C1658.83 703.563 1658.75 703.576 1658.71 703.589C1658.64 703.615 1658.58 703.628 1658.55 703.641C1658.49 703.669 1658.45 703.669 1658.45 703.669C1649.57 706.761 1627.32 718.042 1596.27 758.495C1601.7 777.028 1618.52 790.709 1638.62 791.495C1638.92 791.523 1639.24 791.523 1639.54 791.523C1639.85 791.549 1640.17 791.549 1640.49 791.549H1657.22H1685.19C1685.67 763.055 1686.03 738.268 1686.23 721.269C1686.32 713.762 1686.4 707.789 1686.44 703.669C1686.49 699.548 1686.51 697.309 1686.51 697.309C1686.49 697.309 1686.46 697.309 1686.44 697.309C1677.61 698.362 1666.81 701.256 1661.58 702.762" fill="#1A165E"/>
<path d="M1803.33 705.445C1801.07 704.592 1799.53 704.259 1798.76 704.125C1798.74 704.125 1798.72 704.125 1798.72 704.111C1792.78 702.604 1779.34 699.378 1768.59 698.086C1768.59 698.086 1768.59 698.086 1768.59 698.098C1768.59 698.338 1768.61 703.471 1768.67 712.325V712.339C1768.73 718.005 1768.79 725.218 1768.88 733.658C1769.02 749.365 1769.24 769.312 1769.53 791.551H1801.46H1817.93C1818.68 791.551 1819.43 791.526 1820.17 791.484C1840.23 790.511 1856.91 776.765 1862.25 758.218C1833.19 720.178 1812.45 708.805 1803.33 705.445" fill="#1A165E"/>
<path d="M1759.67 618.187C1758.81 622.414 1755.63 625.121 1750.21 626.214C1746.09 627.053 1742.16 626.601 1742.12 626.588H1742.06C1738.06 626.588 1735.18 624.239 1733.08 619.215C1732.81 618.547 1732.22 616.973 1732.07 615.308C1732.35 615.415 1732.64 615.535 1732.91 615.68C1733.17 615.827 1733.53 615.72 1733.67 615.44C1733.84 615.161 1733.71 614.814 1733.44 614.667C1732.98 614.427 1732.5 614.24 1732.07 614.081V614.068C1732.12 613.294 1732.33 612.548 1732.73 611.907C1733.61 610.613 1735.27 609.961 1737.69 609.961H1752.29C1754.88 609.961 1757.13 610.907 1758.51 612.561C1759.71 614.041 1760.11 615.987 1759.67 618.187V618.187ZM1723.65 615.401C1723.52 617.027 1722.93 618.574 1722.66 619.215C1720.56 624.239 1717.7 626.588 1713.7 626.588H1713.64C1713.6 626.601 1709.65 627.053 1705.53 626.214C1700.13 625.121 1696.95 622.414 1696.09 618.187C1695.65 615.987 1696.05 614.041 1697.25 612.561C1698.61 610.907 1700.86 609.961 1703.45 609.961H1718.03C1720.47 609.961 1722.15 610.613 1723 611.907C1723.44 612.561 1723.65 613.36 1723.69 614.173C1722.95 614.413 1722.47 614.627 1722.41 614.654C1722.11 614.787 1721.99 615.121 1722.13 615.415C1722.22 615.627 1722.43 615.747 1722.64 615.747C1722.72 615.747 1722.81 615.733 1722.89 615.693C1722.89 615.693 1723.2 615.56 1723.65 615.401ZM1759.23 611.96C1757.7 610.081 1755.17 608.999 1752.29 608.999H1737.69C1734.93 608.999 1733 609.801 1731.93 611.375C1731.46 612.107 1731.21 612.933 1731.11 613.788C1728.67 613.187 1726.29 613.494 1724.63 613.908C1724.55 613.013 1724.32 612.147 1723.79 611.375C1722.76 609.801 1720.81 608.999 1718.03 608.999H1703.45C1700.57 608.999 1698.05 610.081 1696.51 611.96C1695.12 613.654 1694.64 615.88 1695.13 618.374C1696.81 626.615 1706.31 627.667 1711.04 627.667C1712.51 627.667 1713.52 627.574 1713.71 627.547C1718.16 627.547 1721.27 625.001 1723.56 619.573C1723.94 618.654 1724.55 616.92 1724.65 615.108C1726.23 614.68 1728.65 614.306 1731.07 614.974C1731.15 616.828 1731.8 618.641 1732.2 619.573C1734.47 625.001 1737.6 627.547 1742.02 627.547C1742.21 627.574 1743.23 627.667 1744.69 627.667C1749.43 627.667 1758.94 626.615 1760.59 618.374C1761.1 615.88 1760.64 613.654 1759.23 611.96Z" fill="#AC4949"/>
<path d="M1246.6 885.642H1009.9C958.893 885.642 917.528 844.282 917.528 793.256V556.576C917.528 505.55 958.893 464.19 1009.9 464.19H1246.6C1297.61 464.19 1338.97 505.55 1338.97 556.576V793.256C1338.97 844.282 1297.61 885.642 1246.6 885.642" fill="#BED2FA"/>
<path d="M1284.4 567.936V773.722C1284.4 796.149 1270.59 815.363 1251 823.295C1249.85 823.762 1248.67 824.19 1247.49 824.576C1242.26 826.282 1236.7 827.202 1230.92 827.202H1025.12C995.592 827.202 971.639 803.256 971.639 773.722V567.936C971.639 538.39 995.592 514.442 1025.12 514.442H1230.92C1260.45 514.442 1284.4 538.39 1284.4 567.936" fill="#E1EBFD"/>
<path d="M1129.79 568.999C1124.04 567.613 1117.35 567.281 1109.57 568.401C1109.57 568.401 1095.6 569.773 1082.51 578.64C1072.07 585.681 1057.02 600.88 1073.85 642.588L1081.82 656.933C1079.16 688.173 1066.38 688.173 1066.38 688.173C1066.38 688.173 1071.96 690.934 1074.68 690.934C1074.68 690.934 1078.62 689.428 1079.4 687.255C1079.4 687.255 1078.62 690.681 1077.6 691.761C1077.6 691.761 1099.3 693.828 1110.13 685.628C1116.02 681.173 1122.48 670.734 1126.63 660.08L1143.04 661.24C1143.23 668.295 1140.68 676.36 1132.8 684.8C1132.8 684.8 1153.04 686.787 1159.9 681.173C1159.9 681.173 1158.54 683.908 1157.31 685.134C1157.31 685.134 1179.93 685.947 1189.28 678.893C1198.62 671.84 1192.6 556.054 1129.79 568.999" fill="#15115B"/>
<path d="M1208.23 827.199H1047.99C1046.05 814.758 1044.86 803.172 1045.61 792.037C1046.55 778.064 1052.71 765.478 1059.99 755.264C1071.87 738.598 1086.67 728.199 1086.67 728.199C1086.67 728.199 1087.05 728.117 1087.68 728.011C1088.82 727.811 1090.81 727.491 1092.91 727.305H1092.95C1094.95 726.251 1095.75 718.997 1095.99 710.504C1096.07 708.131 1096.08 705.678 1096.08 703.237C1096.07 701.118 1096.04 698.998 1095.99 696.904C1095.97 695.917 1095.94 694.957 1095.93 693.997C1095.91 693.718 1095.91 693.452 1095.89 693.185C1095.88 692.771 1095.86 692.371 1095.85 691.971C1095.83 691.664 1095.83 691.358 1095.82 691.05C1095.82 690.558 1095.78 690.09 1095.77 689.625C1095.75 688.997 1095.72 688.371 1095.69 687.771C1095.67 687.637 1095.67 687.504 1095.67 687.371C1095.66 686.797 1095.63 686.237 1095.6 685.691C1095.56 685.024 1095.53 684.37 1095.5 683.757L1095.49 683.277C1095.42 682.278 1095.38 681.357 1095.31 680.518C1095.31 680.291 1095.3 680.065 1095.3 679.852C1095.28 679.598 1095.27 679.358 1095.25 679.118C1095.24 678.878 1095.22 678.664 1095.22 678.451C1095.17 677.744 1095.13 677.157 1095.09 676.677C1095.09 676.57 1095.08 676.464 1095.08 676.371C1095.06 676.251 1095.05 676.144 1095.05 676.051C1095.03 675.611 1095.02 675.371 1095.02 675.371L1122.06 670.024L1140.58 666.358L1142.76 665.93L1143.31 665.825V665.85C1143.28 672.797 1143.67 679.224 1144.33 685.065C1144.91 690.025 1145.69 694.557 1146.62 698.651V698.664C1149.99 713.611 1155.24 722.611 1159.02 724.091C1159.16 724.144 1159.27 724.198 1159.42 724.224C1177.84 728.011 1205.87 775.851 1208.23 827.199" fill="#FC9290"/>
<path d="M1094.99 675.391C1094.99 675.391 1096.03 689.725 1096.06 703.244C1121.57 702.525 1135.06 679.259 1140.57 666.366L1094.99 675.391" fill="#E75755"/>
<path d="M1086.48 688.173C1086.48 688.173 1146.83 689.173 1146.88 651.573C1146.91 613.987 1154.74 588.8 1116.21 586.573C1077.67 584.346 1070.17 598.68 1067.1 611.226C1064.03 623.774 1070.79 686.946 1086.48 688.173Z" fill="#FC9290"/>
<path d="M1088.72 585.653C1088.72 585.653 1105.23 629.76 1130.6 636.279C1155.95 642.799 1166.95 636 1166.95 636C1166.95 636 1147.51 620.546 1143.47 593.574C1143.47 593.574 1101.19 564.653 1088.72 585.653Z" fill="#15115B"/>
<path d="M1092.8 589.23C1092.8 589.23 1080.46 599.083 1077.45 608.657C1074.44 618.23 1073.09 637.936 1067.34 637.27C1067.34 637.27 1054.89 607.284 1068.9 590.324C1083.72 572.351 1092.8 589.23 1092.8 589.23" fill="#15115B"/>
<path d="M1090.52 590.719C1090.52 590.719 1102.29 636.905 1134.29 651.692C1134.29 651.692 1102.29 623.319 1099.56 592.825C1096.87 562.345 1090.52 590.719 1090.52 590.719Z" fill="#15115B"/>
<path d="M1243.15 804.378C1242.13 801.925 1241.11 799.498 1240.12 797.125C1239.61 795.924 1239.12 794.751 1238.62 793.577C1238.61 793.512 1238.59 793.485 1238.59 793.485C1224.64 760.377 1213.6 735.365 1212.52 733.539C1209.39 728.285 1166.89 723.059 1160.66 723.099C1156.15 723.099 1153.66 708.125 1152.67 699.925C1152.37 697.671 1149.81 696.485 1147.95 697.778C1147.49 698.072 1147.06 698.378 1146.59 698.659C1146.03 699.017 1145.49 699.365 1144.93 699.725C1144.38 700.059 1143.82 700.392 1143.24 700.725C1142.86 700.937 1142.49 701.151 1142.11 701.365C1141.7 701.604 1141.27 701.832 1140.84 702.058C1140.47 702.271 1140.07 702.471 1139.67 702.671C1139.29 702.872 1138.91 703.058 1138.52 703.258C1138.11 703.444 1137.73 703.632 1137.36 703.805C1137.04 703.951 1136.74 704.098 1136.43 704.232C1135.86 704.498 1135.3 704.752 1134.74 704.978C1134.33 705.152 1133.93 705.324 1133.53 705.485C1133.25 705.605 1132.96 705.725 1132.67 705.831C1131.12 706.445 1129.58 707.005 1128.03 707.498C1115.08 711.765 1102.96 712.166 1095.98 710.512C1095.82 710.458 1095.64 710.418 1095.47 710.378C1091.91 709.458 1088.67 712.631 1089.44 716.232C1090.36 720.485 1090.6 725.138 1088.21 727.498C1077.42 729.898 1051.15 736.604 1046.22 745.952C1042.68 752.658 1042.36 792.124 1040.45 827.204H1044.57H1095.07H1230.92C1236.71 827.204 1242.26 826.284 1247.49 824.578C1248.68 824.192 1249.85 823.764 1251 823.299C1248.35 816.845 1245.72 810.498 1243.15 804.378" fill="#96B5F5"/>
<path d="M1185.38 827.205H1159.84C1166.31 816.511 1172.47 808.739 1176.03 808.299C1179.09 807.938 1182.34 815.965 1185.38 827.205" fill="#6D89CF"/>
<path d="M1160.67 723.093C1160.67 723.093 1128.84 743.253 1104.78 738.48C1104.78 738.48 1098.99 734.827 1106.97 731.161C1114.45 727.72 1131.86 717.533 1128.04 707.494C1134.66 705.347 1141.49 702.173 1147.96 697.774C1149.84 696.493 1152.38 697.666 1152.67 699.92C1153.67 708.121 1156.15 723.093 1160.67 723.093Z" fill="#6D89CF"/>
<path d="M1490.91 833.999C1490.91 833.999 1539.39 883.573 1541.73 902.693C1544.09 921.799 1518.38 951.706 1518.38 951.706L1490.91 833.999Z" fill="#6D89CF"/>
<path d="M1469.26 1359.4C1469.26 1359.4 1467.61 1386.35 1462.38 1386.74C1461.69 1386.79 1435.94 1386.79 1435.94 1386.79L1403.06 1386.59C1403.06 1386.59 1403.28 1378.67 1412.9 1377C1422.51 1375.32 1438.58 1368.58 1444.39 1355.87C1450.51 1342.51 1469.26 1359.4 1469.26 1359.4Z" fill="#060632"/>
<path d="M1542.48 1359.4C1542.48 1359.4 1540.82 1386.35 1535.6 1386.74C1534.91 1386.79 1509.16 1386.79 1509.16 1386.79L1476.28 1386.59C1476.28 1386.59 1476.49 1378.67 1486.1 1377C1495.72 1375.32 1511.8 1368.58 1517.62 1355.87C1523.76 1342.51 1542.48 1359.4 1542.48 1359.4" fill="#060632"/>
<path d="M1432.86 1069.76C1432.86 1069.76 1441.45 1124.75 1473.52 1222.37C1505.59 1319.98 1509.96 1362.24 1509.96 1362.24L1544.36 1361.27C1544.36 1361.27 1544.66 1254.6 1529.89 1205.52C1515.11 1156.43 1526.7 1028.57 1526.7 1028.57L1432.86 1069.76Z" fill="#060632"/>
<path d="M1416.13 1031.57C1416.13 1031.57 1414.92 1114.44 1429.26 1216.17C1443.58 1317.91 1438.73 1361.09 1438.73 1361.09L1473.06 1362.24C1473.06 1362.24 1493.59 1260.47 1487.7 1209.55C1481.81 1158.61 1515.8 1034.8 1515.8 1034.8L1416.13 1031.57" fill="#15115B"/>
<path d="M1482.59 837.669L1464.3 849.668L1437.85 844.749C1438.23 842.603 1439.97 833.763 1441.56 825.749C1441.65 825.282 1441.76 824.803 1441.84 824.336C1443.2 817.522 1444.38 811.669 1444.38 811.669L1469.08 800.775L1478.28 796.709C1478.25 796.857 1477.57 804.283 1477.46 805.363C1475.73 824.601 1482.59 837.669 1482.59 837.669" fill="#FC9290"/>
<path d="M1444.62 831.629C1445.14 831.403 1476.47 822.162 1479.88 823.283C1483.27 824.417 1485.28 830.99 1485.28 830.99L1434.05 842.576C1434.05 842.576 1438.08 834.376 1444.62 831.629" fill="#6D89CF"/>
<path d="M1528.99 1041.8C1523.66 1066.03 1435.31 1068.91 1412.51 1046.91C1409.93 1044.42 1409.79 1032.75 1410.78 1017.03C1412.69 986.31 1418.83 940.11 1419.06 916.497C1419.18 905.098 1420.75 893.443 1422.84 882.857C1427.28 860.284 1434.05 842.577 1434.05 842.577C1434.05 842.577 1477.2 828.618 1485.29 830.991C1524.19 842.43 1534.29 1017.59 1528.99 1041.8" fill="#98B7F5"/>
<path d="M1410.8 1017.03C1412.71 986.306 1418.84 940.105 1419.08 916.493C1419.2 905.092 1420.78 893.438 1422.86 882.853L1448.81 878.266C1448.81 878.266 1474.2 981.946 1410.8 1017.03" fill="#6D89CF"/>
<path d="M1424.83 974.218C1424.83 974.218 1426.61 978.446 1422.89 981.285C1419.16 984.126 1416.76 988.726 1417.6 992.086C1418.46 995.459 1426.62 1000.94 1429.45 1000.06C1432.27 999.166 1438.02 994.74 1437.4 992.965C1436.77 991.192 1441.27 977.405 1434.38 972.086C1427.48 966.779 1424.83 974.218 1424.83 974.218" fill="#FC9290"/>
<path d="M1453.87 836.366C1453.87 836.366 1428.55 841.1 1408.37 870.833C1388.19 900.566 1374.91 922.673 1378.63 933.392C1382.35 944.113 1416.23 981.286 1422.07 981.286C1427.92 981.286 1437.34 977.033 1437.88 967.472C1437.88 967.472 1414.03 931.726 1418.71 926.366C1420.73 924.086 1449.68 900.566 1453.82 911.192C1460.66 928.767 1453.87 836.366 1453.87 836.366" fill="#98B7F5"/>
<path d="M1475.61 805.697C1470.19 814.885 1449.99 822.831 1441.56 825.751C1441.65 825.285 1441.75 824.804 1441.84 824.338C1443.19 817.524 1444.37 811.67 1444.37 811.67L1469.06 800.777C1474.54 800.697 1477.85 801.924 1475.61 805.697Z" fill="#EE9C9C"/>
<path d="M1435.08 810.159C1435.08 810.159 1474.85 822.572 1482.21 797.679C1489.54 772.785 1499.63 757.626 1474.55 748.652C1449.45 739.678 1441.69 747.719 1437.23 755.426C1432.76 763.145 1424.92 806.293 1435.08 810.159" fill="#FC9290"/>
<path d="M1438.77 753.029C1438.77 753.029 1441.31 781.99 1447.32 780.735C1453.3 779.482 1458.72 778.549 1457.86 787.283C1456.98 796.015 1452.9 809.882 1471.36 811.43C1489.84 812.976 1512.12 761.575 1507.05 752.562C1492.42 726.55 1417.62 721.31 1438.77 753.029" fill="#15115B"/>
<path d="M2133.89 291.276C2133.89 291.276 2115.73 312.819 2092.62 303.806C2092.62 303.806 2087.64 291.776 2087.58 282.908C2087.55 281.819 2087.55 280.759 2087.53 279.755C2087.41 269.767 2087.06 264.164 2087.06 264.164C2087.06 264.164 2087.08 264.162 2087.08 264.158C2088.15 263.722 2122.44 249.641 2122.42 250.812C2121.82 277.819 2133.89 291.276 2133.89 291.276" fill="#FC9290"/>
<path d="M2118.96 257.255C2115.64 263.385 2104.3 275.377 2087.53 279.758C2087.38 269.77 2087.06 264.168 2087.06 264.168C2087.06 264.168 2087.06 264.166 2087.09 264.161C2088.02 263.908 2119.94 255.448 2118.96 257.255" fill="#EA8888"/>
<path d="M2079.91 263.124C2079.91 263.124 2118.47 272.19 2123.75 248.086C2129.01 223.982 2137.54 208.92 2113.14 202.111C2088.74 195.302 2081.92 203.45 2078.22 211.065C2074.5 218.683 2070.01 260.143 2079.91 263.124" fill="#FC9290"/>
<path d="M2122.42 254.652C2122.94 254.989 2131.25 257.537 2146.96 226.231C2149.43 221.317 2151.1 210.684 2145.35 201.289C2139.62 191.898 2119.2 184.511 2102.28 181.297C2085.32 178.083 2081.27 187.615 2077.27 197.195C2073.09 207.253 2061 215.533 2061 215.533C2075.6 223.692 2093.2 212.021 2099.3 213.941C2105.4 215.86 2107.54 225.465 2108 228.546C2108.47 231.627 2109.15 234.186 2116.82 231.435C2124.48 228.685 2120.3 242.297 2119.07 244.901C2119.07 244.901 2118.02 251.835 2122.42 254.652Z" fill="#A83F3F"/>
<path d="M2221.77 855.762H2245.11C2250 855.762 2255.44 850.855 2256.82 841.88C2258.18 832.894 2268.24 828.001 2270.42 820.654C2272.59 813.308 2261.44 802.974 2261.44 802.974L2259.58 800.575L2257.64 798.08L2239.14 802.428C2239.14 802.428 2238.67 806.828 2238.38 812.442C2238.18 816.494 2238.1 821.174 2238.32 825.282C2238.85 835.08 2235.56 845.628 2226.88 847.534C2218.17 849.442 2221.77 855.762 2221.77 855.762" fill="#12123C"/>
<path d="M2059.2 855.759H2121.11C2121.69 855.639 2122.15 855.505 2122.41 855.373C2126.55 853.305 2125.25 837.478 2124.76 832.586C2124.67 831.693 2124.61 831.16 2124.61 831.16C2124.61 831.16 2102.82 813.745 2099.83 827.079C2099.73 827.493 2099.62 827.904 2099.51 828.305C2095.74 840.785 2078.84 846.453 2069.09 848.027C2061.63 849.24 2059.69 853.586 2059.2 855.759" fill="#12123C"/>
<path d="M2071.68 498.791C2071.68 498.791 2074.98 540.04 2078.86 589.614C2084.14 656.961 2090.51 739.681 2091.14 755.361C2092.22 782.56 2096.57 826.094 2096.57 826.094C2096.57 826.094 2106.91 836.441 2127.58 832.08C2127.58 832.08 2146 769.934 2151.28 704.186C2151.37 703.12 2151.45 702.027 2151.54 700.948C2156.43 634.012 2164.04 493.078 2164.04 493.078L2071.68 498.791" fill="#1A165E"/>
<path d="M2071.68 498.791C2071.68 498.791 2074.98 540.041 2078.86 589.614L2151.28 704.187C2151.37 703.12 2151.45 702.027 2151.54 700.948C2156.43 634.012 2164.04 493.078 2164.04 493.078L2071.68 498.791Z" fill="#0D0D38"/>
<path d="M2086.76 503.698C2086.76 503.698 2146.35 653.058 2185.51 723.258C2224.71 793.444 2236.95 813.043 2236.95 813.043C2236.95 813.043 2259.39 804.056 2261.42 797.937C2261.42 797.937 2246.45 662.432 2220.21 629.391C2205.37 610.724 2187.97 554.711 2187.15 535.125C2186.33 515.524 2181.85 476.758 2181.85 476.758L2086.76 503.698Z" fill="#1A165E"/>
<path d="M2222.63 476.557L2223.27 486.163C2223.27 486.163 2216.95 503.233 2234.68 511.978C2234.68 511.978 2242.29 515.045 2242.59 509.127C2242.9 503.22 2241.93 505.445 2242.55 497.11C2243.17 488.781 2239.88 480.908 2234.38 478.258L2229.86 473.04L2222.63 476.557" fill="#FC9290"/>
<path d="M2229.59 483.544C2222.99 485.661 2221.94 485.181 2221.94 485.181C2221.94 485.181 2189.84 426.738 2186.58 421.392C2183.32 416.041 2118.44 355.854 2118.44 355.854L2135.12 293.66C2135.12 293.66 2208.93 389.249 2216.9 402.966C2230.08 425.634 2237.8 478.275 2237.8 478.275C2237.8 478.275 2234.76 481.881 2229.59 483.544Z" fill="#0B0754"/>
<path d="M2059.08 380.273C2059.32 393.046 2060.08 407.404 2061.08 421.99C2061.12 422.854 2061.19 423.717 2061.25 424.582C2061.88 433.618 2062.58 442.671 2063.38 451.501C2063.7 455.043 2064.05 458.544 2064.4 461.979L2064.44 462.443C2064.48 463.732 2064.64 465.126 2064.79 466.4C2068.04 499.474 2071.45 525.599 2072.08 525.998C2072.83 526.505 2073.68 526.759 2074.63 526.653C2083.29 525.56 2109.16 527.531 2130.36 522.918C2148.23 519.146 2163.65 511.999 2179.94 502.358C2182.13 501.079 2187.05 497.691 2186.66 495.158C2186.25 492.373 2185.51 488.347 2184.6 483.289C2181.39 465.699 2175.84 435.434 2173.95 400.017C2173.56 393.421 2173.04 386.905 2172.35 380.498C2170.52 363.813 2167.62 347.962 2163.71 333.881C2156.45 307.726 2145.75 287.694 2132.37 279.857C2130.62 278.877 2121.2 284.867 2112.55 290.418C2104.57 295.536 2096.15 296.951 2087.97 296.237L2080.79 304.197C2072.08 314.328 2062.79 327.815 2060.25 346.986C2060.08 348.405 2059.91 349.908 2059.78 351.508C2059.06 359.316 2058.91 369.205 2059.08 380.273" fill="#211D63"/>
<path d="M2059.1 380.272C2059.33 393.044 2060.08 407.402 2061.08 421.988C2061.14 422.852 2061.21 423.715 2061.25 424.581C2110.8 393.569 2118.44 336.821 2118.44 336.821C2094.07 337.891 2074.69 343.495 2059.78 351.509C2059.06 359.316 2058.91 369.202 2059.1 380.272" fill="#0B0754"/>
<path d="M1912.69 325.67L1903.67 321.04C1903.67 321.04 1897.85 301.852 1876.1 304.599C1876.1 304.599 1867.26 306.39 1870.96 311.909C1874.66 317.429 1874.04 314.84 1879.1 322.723C1884.14 330.607 1892.36 335.743 1899.07 334.833L1906.61 336.825L1912.69 325.67" fill="#EA8888"/>
<path d="M1903.87 328.173C1906.41 321.266 1910.39 321.714 1910.39 321.714C1910.39 321.714 1984.06 340.071 1990.67 340.86C1997.27 341.648 2069.98 312.468 2069.98 312.468C2069.98 312.468 2098.61 299.622 2112.01 311.352C2123.67 321.543 2124.2 334.454 2121.47 345.295C2118.23 358.216 2107.28 367.762 2094.07 369.445C2064.42 373.224 2005.22 380.336 1992.82 378.61C1965.21 374.767 1902.64 338.653 1902.64 338.653C1902.64 338.653 1901.85 333.601 1903.87 328.173" fill="#211D63"/>
<path d="M864.788 878.536C864.788 878.536 866.884 855.708 841.372 855.708C841.372 855.708 849.091 857.802 853.093 861.988C853.093 861.988 836.824 852.442 819.126 867.122C801.414 881.788 812.415 918.602 807.037 925.589C801.659 932.575 780.68 933.975 783.253 956.575C785.813 979.175 849.785 1007.47 845.687 1026.16C845.687 1026.16 870.751 989.309 852.835 972.496C852.835 972.496 861.561 980.723 862.46 990.508C862.46 990.508 864.828 971.403 852.671 965.295C841.916 959.882 833.108 940.108 834.034 936.575C834.959 933.042 864.788 878.536 864.788 878.536" fill="#12123C"/>
<path d="M841.615 985.938C837.688 967.005 813.13 961.126 801.501 976.592C799.413 979.378 797.947 982.658 797.463 986.538C794.808 1008.05 829.184 1095.62 834.12 1103.55C843.08 1117.98 895.846 1167.47 895.846 1167.47L905.567 1161.56C905.567 1161.56 868.136 1098.19 862.342 1092.27C855.65 1085.41 849.082 1021.9 841.615 985.938" fill="#EA8989"/>
<path d="M835.97 974.185C835.97 974.185 843.458 981.959 846.865 991.278C846.865 991.278 834.933 1025.55 807.056 1029.85C807.056 1029.85 829.115 974.172 835.97 974.185Z" fill="#9E332E"/>
<path d="M857.554 875.325C857.897 873.939 827.348 889.139 825.799 890.858C811.457 906.766 815.543 927.511 823.742 927.711C829.007 927.832 827.992 936.578 827.992 936.578L886.594 911.792C886.594 911.792 879.547 870.645 857.554 875.325" fill="#12123C"/>
<path d="M793.135 1372.18L780.455 1370.31C780.455 1370.31 737.815 1336.42 731.468 1273.19C730.815 1266.76 730.682 1260.23 731.162 1253.64C731.215 1252.88 731.135 1252.12 730.722 1251.48L730.708 1251.47C729.335 1249.38 725.935 1244.14 721.348 1236.68C716.815 1229.34 709.055 1215.46 700.522 1199.87C685.135 1171.82 667.242 1138.26 661.095 1127.58C641.535 1093.51 650.962 1070.6 650.962 1070.6C650.962 1070.6 705.548 1065.2 720.495 1052.12L725.882 1060.43C725.882 1060.43 737.708 1112.78 737.148 1113.02C737.735 1114.8 738.322 1116.62 738.922 1118.46C748.255 1147.26 758.988 1183.26 764.842 1212.58C768.135 1229.08 769.882 1243.46 768.935 1253.24C768.615 1256.6 769.015 1261.76 769.908 1268.14C775.188 1305.71 793.135 1372.18 793.135 1372.18" fill="#1A165E"/>
<path d="M819.735 1388.22H766.828C766.828 1388.22 765.562 1380.15 768.322 1374.03C770.975 1368.16 774.748 1367.98 768.802 1358.78C772.162 1362.24 782.975 1363.67 790.628 1362.64C791.562 1364.16 796.668 1374.35 799.802 1376.6C803.255 1379.08 818.668 1378.2 819.735 1388.22" fill="#0D0D38"/>
<path d="M738.922 1118.46C734.308 1143.95 723.388 1186.36 700.522 1199.87C685.135 1171.82 667.242 1138.26 661.095 1127.58C641.535 1093.51 650.962 1070.6 650.962 1070.6C650.962 1070.6 705.548 1065.2 720.495 1052.12L725.882 1060.43C725.882 1060.43 737.708 1112.78 737.148 1113.02C737.735 1114.8 738.322 1116.62 738.922 1118.46" fill="#0D0D38"/>
<path d="M701.815 1074.54L702.002 1064.64C682.282 1067.12 634.015 1041.08 634.015 1041.08C634.015 1041.08 613.388 1054.8 610.562 1093.98C609.188 1113.1 600.468 1193.98 599.508 1218.12C599.148 1226.88 599.042 1233.12 599.002 1235.62C599.002 1235.63 599.002 1235.64 599.002 1235.64C598.988 1236.4 598.628 1237.08 598.162 1237.68C594.082 1242.87 590.548 1248.36 587.482 1254.06C557.388 1310.03 573.122 1386.1 573.122 1386.1L580.108 1384.31C580.108 1384.31 605.548 1305.47 622.175 1271.36C625.002 1265.58 627.562 1261.08 629.708 1258.47C635.962 1250.88 642.548 1237.99 649.042 1222.47C661.322 1193.14 673.255 1154.42 681.748 1124.44C682.362 1124.55 701.815 1074.54 701.815 1074.54" fill="#1A165E"/>
<path d="M817.199 1008.5C784.958 1001.1 805.553 955.803 807.428 956.603C811.895 955.698 821.693 947.857 830.465 932.537L831.653 933.564L851.451 950.923C851.451 950.923 846.876 957.67 843.03 964.284C840.007 969.457 837.47 974.563 837.861 976.31C839.467 977.563 825.782 1010.47 817.199 1008.5" fill="#FC9290"/>
<path d="M851.451 950.924C851.451 950.924 846.863 957.67 843.03 964.284C830.722 956.697 830.708 941.458 831.653 933.578L851.451 950.924" fill="#EA8989"/>
<path d="M851.996 959.618C851.996 959.618 822.117 942.991 832.753 924.539C843.389 906.085 846.706 891.511 866.237 901.352C885.768 911.192 885.384 920.352 883.328 927.379C881.272 934.392 860.042 963.471 851.996 959.618" fill="#FC9290"/>
<path d="M888.372 916.606C886.999 908.42 882.851 907.633 879.939 908.179C868.897 889.94 850.877 897.06 850.877 897.06C841.249 909.14 827.308 911.207 827.308 911.207C827.308 911.207 830.783 917.659 845.067 921.646C849.435 922.873 854.393 922.126 859.173 920.526C849.256 926.046 838.886 928.166 838.886 928.166C857.717 929.886 875.627 912.672 877.481 910.833C878.36 913.499 879.884 919.086 878.964 923.167C877.728 928.727 872.811 938.767 875.819 940.073C875.819 940.073 890.419 928.9 888.372 916.606" fill="#12123C"/>
<path d="M615.202 1388.22H562.295C562.295 1388.22 561.028 1380.15 563.788 1374.03C566.428 1368.16 570.588 1365.5 569.588 1358.39C572.948 1361.86 578.428 1365.74 586.082 1364.7C587.015 1366.22 592.135 1374.35 595.255 1376.6C598.722 1379.08 614.135 1378.2 615.202 1388.22" fill="#0D0D38"/>
<path d="M820.979 1044.41C814.169 1046.78 804.619 1048.07 794.841 1049.14C780.926 1050.66 766.568 1051.7 759.046 1054.7C756.306 1055.79 754.466 1057.15 753.888 1058.87C750.624 1068.69 736.253 1083.82 736.253 1083.82C644.125 1079.62 634.011 1041.09 634.011 1041.09C695.998 969.006 800.939 948.139 800.939 948.139C800.939 948.139 808.447 944.966 827.332 959.967C839.918 969.993 838.266 973.833 838.266 973.833C838.266 973.833 841.019 1037.42 820.979 1044.41" fill="#B25656"/>
<path d="M794.855 1049.14C780.935 1050.66 766.575 1051.7 759.055 1054.7C755.975 1008.75 777.655 974.189 777.655 974.189C777.655 974.189 791.802 1031.75 794.855 1049.14Z" fill="#9E332E"/>
<path d="M1188.03 1386.79H970.397C923.47 1386.79 885.437 1348.75 885.437 1301.83V1084.19C885.437 1037.27 923.47 999.227 970.397 999.227H1188.03C1234.96 999.227 1272.99 1037.27 1272.99 1084.19V1301.83C1272.99 1348.75 1234.96 1386.79 1188.03 1386.79" fill="#BED2FA"/>
<path d="M1222.79 1094.63V1283.87C1222.79 1296.83 1217.77 1308.6 1209.58 1317.39C1200.61 1327.02 1187.82 1333.04 1173.62 1333.04H984.367C969.776 1333.04 956.668 1326.68 947.661 1316.59C939.901 1307.9 935.2 1296.43 935.2 1283.87V1094.63C935.2 1067.47 957.22 1045.46 984.367 1045.46H1173.62C1200.77 1045.46 1222.79 1067.47 1222.79 1094.63Z" fill="#E1EBFD"/>
<path d="M1041.93 1187.91C1041.93 1187.91 1014.46 1138.08 1039.66 1116.08C1064.86 1094.08 1109.22 1107.22 1117.37 1116.08C1125.53 1124.96 1136.4 1150.19 1113.87 1186.06L1041.93 1187.91Z" fill="#12123C"/>
<path d="M1053.31 1208.4C1053.31 1208.4 1052.33 1239.16 1048.39 1252.95L1017.22 1274.68L1134.53 1292.24L1106.56 1253.59C1106.56 1253.59 1098.11 1212.34 1102.54 1197.08C1106.97 1181.83 1053.31 1208.4 1053.31 1208.4Z" fill="#F0807D"/>
<path d="M1053.14 1212.66C1053.16 1212.64 1062.42 1234.98 1079.9 1234.5C1097.37 1234 1101.34 1214.24 1101.34 1214.24L1053.14 1212.66Z" fill="#ED6966"/>
<path d="M1077.89 1225.86C1065.24 1225.64 1041.93 1208.78 1041.93 1187.91V1155.33C1041.93 1147.71 1047.24 1141.47 1053.74 1141.47H1102.05C1108.54 1141.47 1113.86 1147.71 1113.86 1155.33V1186.06C1113.86 1207.95 1092.41 1226.11 1077.89 1225.86Z" fill="#F0807D"/>
<path d="M1209.59 1317.39C1200.62 1327.01 1187.83 1333.04 1173.63 1333.04H984.387C969.777 1333.04 956.674 1326.68 947.682 1316.59C988.216 1262.68 1013.94 1259.29 1014.61 1259.21C1019.4 1257.72 1031.06 1254.33 1048.51 1252.55C1048.51 1253 1062.1 1272.91 1078.12 1275.12C1088.07 1271.19 1095.54 1267.33 1106.41 1252.88C1118.76 1254.31 1132.46 1257.16 1146.67 1260.73L1146.65 1260.67C1146.65 1260.67 1170.68 1266.69 1209.59 1317.39" fill="#567BCB"/>
<path d="M1041.94 1168.53C1041.94 1168.53 1050.73 1141.71 1079.52 1145.89C1108.31 1150.08 1110.81 1156.23 1113.88 1163.37C1116.92 1170.51 1122.84 1137.28 1122.84 1137.28L1088.88 1127.19C1088.88 1127.19 1047.78 1131.87 1044.82 1138.76C1041.88 1145.65 1041.88 1145.65 1041.88 1145.65L1041.94 1168.53" fill="#12123C"/>
<path d="M1075.54 1116.64C1075.54 1116.64 1045.12 1088.99 1058.17 1083.08C1071.23 1077.18 1075.54 1116.64 1075.54 1116.64Z" fill="#12123C"/>
<path d="M1074.33 1117.37C1074.33 1117.37 1035.85 1102.87 1045.8 1092.57C1055.76 1082.27 1074.33 1117.37 1074.33 1117.37Z" fill="#12123C"/>
<path d="M1076.85 1118.18C1076.85 1118.18 1070.55 1082.51 1085.74 1082.78C1100.95 1083.03 1076.85 1118.18 1076.85 1118.18Z" fill="#12123C"/>
<path d="M1078.97 1115.84C1078.97 1115.84 1095.46 1077.48 1110.79 1081.07C1126.14 1084.65 1078.97 1115.84 1078.97 1115.84Z" fill="#12123C"/>
<path d="M1078.13 1118.17C1078.13 1118.17 1104.36 1085.68 1118.16 1093.28C1131.96 1100.88 1078.13 1118.17 1078.13 1118.17Z" fill="#12123C"/>
<path d="M809.171 965.299C809.171 965.299 774.281 968.738 771.499 991.405C768.703 1014.06 804.923 1106.34 810.117 1114.7C819.559 1129.91 875.17 1182.04 875.17 1182.04L885.42 1175.83C885.42 1175.83 845.98 1109.06 839.868 1102.8C830.275 1092.99 820.97 973.151 809.171 965.299" fill="#FC9290"/>
<path d="M772.503 1005.03C772.596 1005.55 804.693 1015.51 825.338 1005.03C825.338 1005.03 829.761 957.376 805.107 959.963C780.453 962.55 765.861 970.323 765.233 982.123C764.619 993.922 772.503 1005.03 772.503 1005.03Z" fill="#B25656"/>
<path d="M875.17 1182.04C875.17 1182.04 870.88 1198.41 875.17 1205.8C879.473 1213.2 885.42 1218.92 885.42 1218.92V1175.83L875.17 1182.04Z" fill="#FC9290"/>
<path d="M2048.99 1386.79H1776.77L1866.24 999.229H2125.35L2137.26 1004.47L2048.99 1386.79" fill="#15152A"/>
<path d="M2035.87 1386.79H1763.64L1853.1 999.231H2125.33L2035.87 1386.79Z" fill="white"/>
<path d="M2052.25 1053.71H1926.61C1923.84 1053.71 1921.04 1055.99 1920.41 1058.76C1919.76 1061.54 1921.5 1063.8 1924.27 1063.8H2049.91C2052.69 1063.8 2055.49 1061.54 2056.11 1058.76C2056.76 1055.99 2055.01 1053.71 2052.25 1053.71Z" fill="#BED2FA"/>
<path d="M2049.54 1080.6H1916.88C1916.05 1080.6 1915.17 1081.3 1914.99 1082.15C1914.8 1082.99 1915.32 1083.68 1916.17 1083.68H2048.83C2049.68 1083.68 2050.52 1082.99 2050.71 1082.15C2050.91 1081.3 2050.37 1080.6 2049.54 1080.6Z" fill="#BED2FA"/>
<path d="M2047.89 1087.71H1915.25C1914.4 1087.71 1913.55 1088.4 1913.36 1089.25C1913.17 1090.09 1913.69 1090.79 1914.55 1090.79H2047.2C2048.05 1090.79 2048.89 1090.09 2049.08 1089.25C2049.28 1088.4 2048.74 1087.71 2047.89 1087.71Z" fill="#BED2FA"/>
<path d="M1868.92 1063.8H1902.86C1905.63 1063.8 1908.43 1061.54 1909.07 1058.76C1909.71 1055.99 1907.97 1053.71 1905.2 1053.71H1871.24C1868.48 1053.71 1865.68 1055.99 1865.04 1058.76C1864.4 1061.54 1866.14 1063.8 1868.92 1063.8Z" fill="#BED2FA"/>
<path d="M2031.54 1131.95H1905.93C1903.14 1131.95 1900.34 1134.22 1899.72 1136.99C1899.07 1139.76 1900.82 1142.04 1903.58 1142.04H2029.22C2032 1142.04 2034.78 1139.76 2035.43 1136.99C2036.07 1134.22 2034.33 1131.95 2031.54 1131.95Z" fill="#BED2FA"/>
<path d="M2028.84 1158.83H1896.2C1895.35 1158.83 1894.5 1159.52 1894.29 1160.38C1894.11 1161.23 1894.65 1161.92 1895.5 1161.92H2028.13C2028.98 1161.92 2029.83 1161.23 2030.02 1160.38C2030.22 1159.52 2029.69 1158.83 2028.84 1158.83" fill="#BED2FA"/>
<path d="M2027.21 1165.93H1894.57C1893.72 1165.93 1892.85 1166.63 1892.67 1167.48C1892.48 1168.32 1893 1169.03 1893.87 1169.03H2026.5C2027.35 1169.03 2028.2 1168.32 2028.39 1167.48C2028.59 1166.63 2028.06 1165.93 2027.21 1165.93" fill="#BED2FA"/>
<path d="M1848.23 1142.04H1882.17C1884.95 1142.04 1887.75 1139.76 1888.39 1136.99C1889.02 1134.22 1887.27 1131.95 1884.49 1131.95H1850.55C1847.79 1131.95 1844.99 1134.22 1844.33 1136.99C1843.7 1139.76 1845.45 1142.04 1848.23 1142.04Z" fill="#BED2FA"/>
<path d="M2015.07 1210.17H1889.45C1886.66 1210.17 1883.87 1212.44 1883.23 1215.23C1882.59 1218 1884.32 1220.27 1887.11 1220.27H2012.74C2015.53 1220.27 2018.32 1218 2018.96 1215.23C2019.6 1212.44 2017.84 1210.17 2015.07 1210.17Z" fill="#BED2FA"/>
<path d="M2012.35 1237.07H1879.72C1878.85 1237.07 1878.01 1237.76 1877.8 1238.6C1877.62 1239.46 1878.15 1240.15 1879 1240.15H2011.65C2012.49 1240.15 2013.34 1239.46 2013.54 1238.6C2013.73 1237.76 2013.21 1237.07 2012.35 1237.07" fill="#BED2FA"/>
<path d="M2010.72 1244.18H1878.07C1877.23 1244.18 1876.36 1244.87 1876.16 1245.71C1875.97 1246.56 1876.51 1247.26 1877.35 1247.26H2010C2010.84 1247.26 2011.71 1246.56 2011.89 1245.71C2012.1 1244.87 2011.54 1244.18 2010.72 1244.18Z" fill="#BED2FA"/>
<path d="M1831.74 1220.27H1865.69C1868.48 1220.27 1871.26 1218 1871.92 1215.23C1872.55 1212.44 1870.81 1210.18 1868.02 1210.18H1834.08C1831.31 1210.18 1828.5 1212.44 1827.87 1215.23C1827.22 1218 1828.98 1220.27 1831.74 1220.27Z" fill="#BED2FA"/>
<path d="M1995.82 1291.6H1870.17C1867.4 1291.6 1864.61 1293.87 1863.97 1296.64C1863.33 1299.42 1865.08 1301.7 1867.85 1301.7H1993.48C1996.25 1301.7 1999.07 1299.42 1999.7 1296.64C2000.34 1293.87 1998.59 1291.6 1995.82 1291.6" fill="#BED2FA"/>
<path d="M1993.12 1318.48H1860.49C1859.63 1318.48 1858.79 1319.18 1858.59 1320.03C1858.4 1320.88 1858.94 1321.56 1859.78 1321.56H1992.42C1993.29 1321.56 1994.11 1320.88 1994.31 1320.03C1994.52 1319.18 1993.98 1318.48 1993.12 1318.48Z" fill="#BED2FA"/>
<path d="M1991.47 1325.59H1858.85C1857.99 1325.59 1857.13 1326.28 1856.94 1327.14C1856.74 1327.98 1857.27 1328.67 1858.11 1328.67H1990.77C1991.61 1328.67 1992.47 1327.98 1992.66 1327.14C1992.86 1326.28 1992.33 1325.59 1991.47 1325.59" fill="#BED2FA"/>
<path d="M1848.8 1291.6H1814.86C1812.07 1291.6 1809.28 1293.87 1808.63 1296.64C1808 1299.41 1809.75 1301.7 1812.52 1301.7H1846.46C1849.23 1301.7 1852.04 1299.41 1852.67 1296.64C1853.31 1293.87 1851.57 1291.6 1848.8 1291.6" fill="#BED2FA"/>
<path d="M2031.43 1027.8H1925.95C1918.71 1027.8 1913.38 1021.09 1915 1014.05L1918.96 996.853H2048.85L2044.01 1017.79C2042.66 1023.65 2037.45 1027.8 2031.43 1027.8Z" fill="#93B3F4"/>
<path d="M2048.84 996.858L2057.78 999.231H2048.29L2048.84 996.858Z" fill="#FA7269"/>
<path d="M2111.12 1377.78C2111.12 1380.26 2110.12 1382.51 2108.48 1384.15C2107.29 1385.32 2105.77 1386.19 2104.09 1386.58C2103.45 1386.71 2102.77 1386.79 2102.09 1386.79H1848.28C1843.34 1386.79 1839.28 1382.74 1839.28 1377.78C1839.28 1375.31 1840.28 1373.04 1841.94 1371.4C1843.55 1369.78 1845.82 1368.76 1848.28 1368.76H2102.09C2102.77 1368.76 2103.45 1368.84 2104.09 1368.99C2108.1 1369.9 2111.12 1373.5 2111.12 1377.78" fill="#93B3F4"/>
<path d="M2104.09 1368.76L2137.24 1376.1L2104.09 1386.79V1368.76Z" fill="#6D89CF"/>
<path d="M1904.24 1368.76V1386.79H1848.3C1843.35 1386.79 1839.28 1382.73 1839.28 1377.77C1839.28 1375.31 1840.3 1373.04 1841.94 1371.4C1843.57 1369.77 1845.83 1368.76 1848.3 1368.76H1904.24" fill="#6D89CF"/>
<path d="M2645.85 1393.54H3.51949C1.58685 1393.54 0 1391.96 0 1390.03C0 1388.1 1.58685 1386.51 3.51949 1386.51H2645.85C2647.79 1386.51 2649.38 1388.1 2649.38 1390.03C2649.38 1391.96 2647.79 1393.54 2645.85 1393.54Z" fill="#0D0D38"/>
</svg>
